# xmcd CD database file
#
# Track frame offsets:
#	150
#	18837
#	36447
#	50592
#
# Disc length: 806 seconds
#
# Revision: 8
# Processed by: cddbd v1.5.2PL0 Copyright (c) Steve Scherf et al.
# Submitted via: CDex 1.97
#
DISCID=2c032404
DTITLE=Dunblane - Dunblane - Knockin' On Heaven's Door/Throw These Guns Away [CD Single)
DYEAR=1996
DGENRE=Folk/Rock
TTITLE0=Knockin' on Heaven's Door (with Mark Knopfler)
TTITLE1=Throw These Guns Away
TTITLE2=Bairns of Dunblane
TTITLE3=Only Love to Give - Throw These Guns Away (Reprise)
EXTD=YEAR: 1996
EXTT0=
EXTT1=
EXTT2=
EXTT3=
PLAYORDER=
